<svg fill="fff" stroke="#fff"   xmlns="http://www.w3.org/2000/svg" version="1.1" xmlns:xlink="http://www.w3.org/1999/xlink" width="512" height="512" x="0" y="0" viewBox="0 0 32 32" xml:space="preserve"><g><path d="M7.562 25.417c-2.171 0-3.806-.625-4.552-1.917-.909-1.574-.343-3.83 1.593-6.352 1.844-2.402 4.738-4.809 8.147-6.778.317-.183.634-.359.951-.53a.5.5 0 1 1 .473.881c-.308.166-.616.337-.924.515-3.299 1.905-6.089 4.221-7.855 6.521-1.65 2.148-2.204 4.059-1.52 5.243 1.49 2.581 8.302 1.557 14.875-2.237 3.299-1.905 6.088-4.221 7.854-6.521 1.65-2.148 2.204-4.059 1.52-5.243a2.107 2.107 0 0 0-.433-.526.501.501 0 0 1 .664-.749c.254.226.468.486.635.774.91 1.575.344 3.831-1.593 6.353-1.844 2.402-4.738 4.809-8.147 6.778-4.303 2.484-8.554 3.788-11.688 3.788z" fill="#000000" opacity="1" data-original="#000000"></path><path d="M24.438 25.417c-3.135 0-7.385-1.303-11.688-3.788a38.92 38.92 0 0 1-.948-.567.5.5 0 1 1 .525-.851c.303.187.61.371.923.552 6.572 3.793 13.383 4.818 14.874 2.236.684-1.184.13-3.095-1.52-5.243-1.766-2.3-4.556-4.616-7.854-6.521C12.178 7.442 5.366 6.419 3.875 9c-.106.185-.185.39-.232.607a.5.5 0 1 1-.977-.215 3.15 3.15 0 0 1 .343-.892c1.824-3.156 8.957-2.334 16.241 1.87 3.41 1.969 6.303 4.376 8.147 6.778 1.937 2.521 2.502 4.777 1.593 6.352-.745 1.292-2.381 1.917-4.552 1.917z" fill="#000000" opacity="1" data-original="#000000"></path><path d="M16 31c-3.645 0-6.5-6.589-6.5-15S12.355 1 16 1s6.5 6.589 6.5 15c0 .369-.006.735-.017 1.097a.5.5 0 0 1-1-.03c.011-.353.017-.708.017-1.067 0-7.589-2.519-14-5.5-14s-5.5 6.411-5.5 14 2.519 14 5.5 14c.215 0 .433-.035.648-.104a.5.5 0 1 1 .307.951A3.111 3.111 0 0 1 16 31z" fill="#000000" opacity="1" data-original="#000000"></path><path d="M19.5 30c-1.103 0-2-.897-2-2s.897-2 2-2 2 .897 2 2-.897 2-2 2zm0-3c-.551 0-1 .449-1 1s.449 1 1 1 1-.449 1-1-.449-1-1-1zM24.5 9c-1.103 0-2-.897-2-2s.897-2 2-2 2 .897 2 2-.897 2-2 2zm0-3c-.551 0-1 .449-1 1s.449 1 1 1 1-.449 1-1-.449-1-1-1zM4 15c-1.103 0-2-.897-2-2s.897-2 2-2 2 .897 2 2-.897 2-2 2zm0-3c-.551 0-1 .449-1 1s.449 1 1 1 1-.449 1-1-.449-1-1-1zM16 20c-2.206 0-4-1.794-4-4s1.794-4 4-4 4 1.794 4 4-1.794 4-4 4zm0-7c-1.654 0-3 1.346-3 3s1.346 3 3 3 3-1.346 3-3-1.346-3-3-3z" fill="#fff" opacity="1" data-original="#fff"></path></g></svg>